<svg viewBox="0 0 40 40" xmlns="http://www.w3.org/2000/svg">
  <rect x="0" y="0" width="10" height="10" fill="#1d2b53"/>
  <rect x="10" y="0" width="10" height="10" fill="#7e2553"/>
  <rect x="20" y="0" width="10" height="10" fill="#ab5236"/>
  <rect x="30" y="0" width="10" height="10" fill="#ffa300"/>
  <rect x="0" y="10" width="10" height="10" fill="#29adff"/>
  <rect x="10" y="10" width="10" height="10" fill="#1d2b53"/>
  <rect x="20" y="10" width="10" height="10" fill="#ffa300"/>
  <rect x="30" y="10" width="10" height="10" fill="#ffec27"/>
  <rect x="0" y="20" width="10" height="10" fill="#008751"/>
  <rect x="10" y="20" width="10" height="10" fill="#29adff"/>
  <rect x="20" y="20" width="10" height="10" fill="#ffec27"/>
  <rect x="30" y="20" width="10" height="10" fill="#ff004d"/>
  <rect x="0" y="30" width="10" height="10" fill="#00e436"/>
  <rect x="10" y="30" width="10" height="10" fill="#008751"/>
  <rect x="20" y="30" width="10" height="10" fill="#ff004d"/>
  <rect x="30" y="30" width="10" height="10" fill="#ff77a8"/>
</svg>
