<?xml version="1.0" encoding="UTF-8" standalone="no"?>
<!DOCTYPE svg PUBLIC "-//W3C//DTD SVG 1.1//EN" "http://www.w3.org/Graphics/SVG/1.1/DTD/svg11.dtd">
<svg width="100%" height="100%" viewBox="0 0 1024 1024" version="1.1" xmlns="http://www.w3.org/2000/svg" xmlns:xlink="http://www.w3.org/1999/xlink" xml:space="preserve" xmlns:serif="http://www.serif.com/" style="fill-rule:evenodd;clip-rule:evenodd;stroke-linejoin:round;stroke-miterlimit:2;">
    <path d="M496.706,444L496.706,603" style="fill:none;"/>
    <g transform="matrix(1.18201,0,0,1.18201,146.38,102.4)">
        <g transform="matrix(1,0,0,1,-214,-147)">
            <path d="M724.706,444L645.206,444L645.206,523.5L724.706,523.5L724.706,444ZM486.206,444L416.706,444C411.183,444 406.706,439.523 406.706,434L406.706,316C406.706,310.477 411.183,306 416.706,306L546.5,306C584.582,306 615.5,336.918 615.5,375C615.5,406.418 594.457,432.959 565.706,441.287L565.706,523.5L486.206,523.5L486.206,603L565.706,603L565.706,523.5L645.206,523.5L645.206,593.223C716.913,571.463 773.709,515.308 796.355,444L724.706,444L724.706,364.5L806.762,364.5C801.26,243.522 701.313,147 579,147L234,147C222.954,147 214,155.954 214,167L214,820.056C214,831.102 222.954,840.056 234,840.056L386.706,840.056C392.01,840.056 397.097,837.949 400.848,834.198C404.599,830.447 406.706,825.36 406.706,820.056L406.706,682.5L327.206,682.5L327.206,603L406.706,603L406.706,523.5L486.206,523.5L486.206,444Z" style="fill:url(#_Linear1);"/>
        </g>
        <g transform="matrix(1,0,0,1,-235.393,-106.479)">
            <g transform="matrix(0.979124,0,0,1.00163,167.99,39.8796)">
                <rect x="325" y="640.131" width="81.706" height="79.869" style="fill:rgb(138,39,230);"/>
            </g>
            <g transform="matrix(0.856734,0,0,0.87643,296.767,40.5266)">
                <rect x="325" y="640.131" width="81.706" height="79.869" style="fill:rgb(218,16,241);"/>
            </g>
            <g transform="matrix(0.734343,0,0,0.751226,415.966,202.974)">
                <rect x="325" y="640.131" width="81.706" height="79.869" style="fill:rgb(236,61,176);"/>
            </g>
            <g transform="matrix(0.611953,0,0,0.626021,525.116,217.673)">
                <rect x="325" y="640.131" width="81.706" height="79.869" style="fill:rgb(245,116,98);"/>
            </g>
            <g transform="matrix(0.489562,0,0,0.500817,629.047,241.891)">
                <rect x="325" y="640.131" width="81.706" height="79.869" style="fill:rgb(251,153,47);"/>
            </g>
        </g>
    </g>
    <defs>
        <linearGradient id="_Linear1" x1="0" y1="0" x2="1" y2="0" gradientUnits="userSpaceOnUse" gradientTransform="matrix(593,-693.056,693.056,593,214,840.056)"><stop offset="0" style="stop-color:rgb(34,70,217);stop-opacity:1"/><stop offset="0.41" style="stop-color:rgb(228,13,242);stop-opacity:1"/><stop offset="0.69" style="stop-color:rgb(248,134,73);stop-opacity:1"/><stop offset="1" style="stop-color:rgb(254,171,22);stop-opacity:1"/></linearGradient>
    </defs>
</svg>
